<svg xmlns="http://www.w3.org/2000/svg" xmlns:xlink="http://www.w3.org/1999/xlink" width="32" height="32" viewBox="0 0 32 32">
  <defs>
    <clipPath id="clip-path">
      <rect id="Rectangle_9019" data-name="Rectangle 9019" width="32" height="32" transform="translate(0 0)" fill="none"/>
    </clipPath>
  </defs>
  <g id="Group_21588" data-name="Group 21588" transform="translate(0.707 0.707)">
    <g id="Group_21587" data-name="Group 21587" transform="translate(-0.707 -0.707)" clip-path="url(#clip-path)">
      <path id="Path_18001" data-name="Path 18001" d="M15.347,27.078l.36.14a.478.478,0,0,1,.353.574.471.471,0,0,1-.593.3H15.42a4.76,4.76,0,0,1-1.574-.8A4.623,4.623,0,0,1,12.229,25a.316.316,0,0,0-.354-.273H1.963c-.735,0-.993-.279-.963-1.007a15.443,15.443,0,0,1,30.46-2.993,14.06,14.06,0,0,1,.368,2.287c0,.051,0,.125.059.154v1.015c-.162.485-.375.625-.956.625H21.737a.4.4,0,0,0-.449.309,4.489,4.489,0,0,1-.735,1.324,4.686,4.686,0,0,1-2.081,1.574c-.221.088-.456.081-.677.147H17.56a.464.464,0,0,1-.36-.463.544.544,0,0,1,.368-.5c.191-.088.4-.125.6-.213A3.868,3.868,0,0,0,20.369,24.4c.625-2.088,1.287-4.162,1.919-6.243,0-.088.118-.2,0-.279s-.169,0-.25.044c-2.133.654-4.258,1.324-6.391,1.971a3.765,3.765,0,0,0-.735,6.949.685.685,0,0,1,.346.228" transform="translate(-0.264 -2.34)" fill="#fff"/>
      <path id="Path_18002" data-name="Path 18002" d="M19.628,30.279A3.6,3.6,0,0,1,17.289,27.6a3.787,3.787,0,0,1,2.7-4.574l6.655-2.044.147-.044a.339.339,0,0,1-.051.324l-1.986,6.42a3.831,3.831,0,0,1-2.7,2.736c-.574.176-.64.515-.191.956H20.3c0-.125.125-.162.184-.257a.646.646,0,0,0-.088-.735c-.213-.265-.5-.154-.735-.051" transform="translate(-4.545 -5.541)" fill="#464a50"/>
      <path id="Path_18003" data-name="Path 18003" d="M23.426,25.576l.993-3.214.816-2.64a.838.838,0,0,0-.176-.89.86.86,0,0,0-.934-.221q-3.563,1.1-7.119,2.206A4.669,4.669,0,0,0,13.829,25.2c0,.4,0,.4-.4.4H8.086c-.228,0-.309-.037-.287-.294a10.155,10.155,0,0,1,5.582-8.457,10.045,10.045,0,0,1,10.053.184,10.136,10.136,0,0,1,4.957,6.53,10.738,10.738,0,0,1,.287,1.809c0,.154,0,.235-.2.235H23.536a.553.553,0,0,1-.11,0" transform="translate(-2.063 -4.125)" fill="#464a50"/>
      <path id="Path_18004" data-name="Path 18004" d="M32.116,14.081c-.735.7-1.419,1.4-2.111,2.1-.147.147-.221.051-.316-.037A11.232,11.232,0,0,0,22.9,13.324c-.206,0-.272-.066-.272-.272V10.375c0-.169,0-.25.228-.235a14.941,14.941,0,0,1,4.706,1.015A14.348,14.348,0,0,1,32.139,14.1" transform="translate(-5.988 -2.683)" fill="#464a50"/>
      <path id="Path_18005" data-name="Path 18005" d="M6.191,16.35c.735.735,1.4,1.412,2.1,2.111.147.147.059.221,0,.309A11.244,11.244,0,0,0,5.471,25.52c0,.213-.059.287-.294.287H2.5c-.191,0-.235-.044-.221-.235a14.592,14.592,0,0,1,1.559-5.846A14.076,14.076,0,0,1,6.191,16.35" transform="translate(-0.602 -4.326)" fill="#464a50"/>
      <path id="Path_18006" data-name="Path 18006" d="M35.624,16.35a14.284,14.284,0,0,1,2.331,3.28,14.8,14.8,0,0,1,1.6,5.957c0,.147,0,.213-.184.213h-2.8c-.169,0-.191-.074-.2-.213a11.274,11.274,0,0,0-1.206-4.412,9.927,9.927,0,0,0-1.552-2.28c-.213-.228-.184-.353,0-.559.662-.64,1.309-1.3,1.971-1.963" transform="translate(-8.856 -4.326)" fill="#464a50"/>
      <path id="Path_18007" data-name="Path 18007" d="M8.46,14.079a14.636,14.636,0,0,1,6.861-3.633,16.145,16.145,0,0,1,2.449-.316c.147,0,.191,0,.191.184v2.8c0,.2-.1.191-.243.206a11.242,11.242,0,0,0-3.4.735,10.934,10.934,0,0,0-3.4,2.066c-.162.147-.257.162-.427,0-.662-.684-1.353-1.346-2.03-2.03" transform="translate(-2.239 -2.681)" fill="#464a50"/>
      <path id="Path_18008" data-name="Path 18008" d="M23.677,27.838A1.838,1.838,0,1,1,21.838,26a1.838,1.838,0,0,1,1.838,1.838" transform="translate(-5.292 -6.88)" fill="#fff"/>
    </g>
  </g>
</svg>
