<svg xmlns="http://www.w3.org/2000/svg" width="31.407" height="21.071" viewBox="0 0 31.407 21.071">
  <g id="Page-1" transform="translate(-206.83 -33.95)">
    <g id="Group_4523" data-name="Group 4523" transform="translate(207 34.6)">
      <rect id="Rectangle_4851" data-name="Rectangle 4851" width="31" height="2.756" transform="translate(0 3.031)" fill="#464a50"/>
      <path id="Line" d="M207.7,43.1h29.829" transform="translate(-207.218 -37.244)" fill="none" stroke="#fff" stroke-linecap="square" stroke-width="1.3"/>
      <path id="Path_7626" data-name="Path 7626" d="M207,52h31v4.133a3.411,3.411,0,0,1-3.444,3.444H210.444A3.411,3.411,0,0,1,207,56.133Z" transform="translate(-207 -40.013)" fill="#464a50" fill-rule="evenodd"/>
      <path id="Path_7627" data-name="Path 7627" d="M211.143,34.6h23.216a3.411,3.411,0,0,1,3.444,3.444V50.927a3.411,3.411,0,0,1-3.444,3.444H211.143a3.411,3.411,0,0,1-3.444-3.444V38.113A3.426,3.426,0,0,1,211.143,34.6Z" transform="translate(-207.217 -34.6)" fill="none" stroke="#fff" stroke-width="1.3"/>
      <path id="Fill-4" d="M223.887,56.24H212.52a.62.62,0,1,1,0-1.24h11.367a.62.62,0,0,1,0,1.24" transform="translate(-208.524 -40.947)" fill="#464a50" stroke="#fff" stroke-width="0.5" fill-rule="evenodd"/>
    </g>
  </g>
</svg>
