<svg xmlns="http://www.w3.org/2000/svg" width="22.086" height="22.086" viewBox="0 0 22.086 22.086">
  <g id="Group_5" data-name="Group 5" transform="translate(0 0)">
    <path id="Path_17" data-name="Path 17" d="M146.363,131h-8.44a6.827,6.827,0,0,0-6.823,6.823v8.44a6.827,6.827,0,0,0,6.823,6.823h8.44a6.827,6.827,0,0,0,6.823-6.823v-8.44A6.827,6.827,0,0,0,146.363,131Zm4.357,15.272a4.37,4.37,0,0,1-4.366,4.366h-8.44a4.37,4.37,0,0,1-4.366-4.366v-8.44a4.37,4.37,0,0,1,4.366-4.366h8.44a4.37,4.37,0,0,1,4.366,4.366Z" transform="translate(-131.1 -131)" fill="#fff"/>
    <path id="Path_18" data-name="Path 18" d="M197.748,192.1a5.648,5.648,0,1,0,5.648,5.648A5.658,5.658,0,0,0,197.748,192.1Zm0,9.077a3.429,3.429,0,1,1,3.429-3.429A3.432,3.432,0,0,1,197.748,201.177Z" transform="translate(-186.709 -186.7)" fill="#fff"/>
    <circle id="Ellipse_2" data-name="Ellipse 2" cx="0.955" cy="0.955" r="0.955" transform="matrix(0.987, -0.16, 0.16, 0.987, 15.869, 4.288)" fill="#fff"/>
  </g>
</svg>
