<svg width="22px" height="20px" viewBox="0 0 22 20" version="1.1" xmlns="http://www.w3.org/2000/svg" xmlns:xlink="http://www.w3.org/1999/xlink">
   
    <g id="Page-1" stroke="none" strokeWidth="1" fill="none" fillRule="evenodd">
        <g id="Home_Screen_(India)" transform="translate(-1220.000000, -5112.000000)" fill="#FFFFFF">
            <g id="Group-48" transform="translate(1098.000000, 5107.000000)">
                <g id="Linkdin" transform="translate(121.750000, 5.000000)">
                    <path d="M12.2887404,8.52279876 L12.2887404,8.43967376 C12.2717404,8.46754876 12.2482404,8.49542376 12.2334904,8.52279876 L12.2887404,8.52279876 Z" id="Path"></path>
                    <path d="M5.33112088,19.9232088 L0.880175824,19.9232088 L0.880175824,6.53226374 L5.33112088,6.53226374 L5.33112088,19.9232088 Z M3.10564835,4.70457143 L3.07624176,4.70457143 C1.58316484,4.70457143 0.615384615,3.67593407 0.615384615,2.39021978 C0.615384615,1.07628571 1.61145055,0.0767912088 3.13479121,0.0767912088 C4.65846154,0.0767912088 5.59479121,1.07628571 5.62393407,2.39021978 C5.62393407,3.67593407 4.65846154,4.70457143 3.10564835,4.70457143 Z M21.3846154,19.9232747 L16.9324835,19.9232088 L16.9324835,12.759011 C16.9324835,10.9596044 16.2892308,9.73131868 14.6778681,9.73131868 C13.4472747,9.73131868 12.716,10.5583297 12.3938462,11.3594286 C12.2767473,11.6455824 12.2461538,12.0433626 12.2461538,12.4446374 L12.2461538,19.9232747 L7.79316484,19.9232747 C7.79316484,19.9232747 7.85283516,7.78857143 7.79316484,6.53232967 L12.2461538,6.53232967 L12.2461538,8.42984615 C12.8377802,7.51949451 13.8935824,6.21795604 16.2586374,6.21795604 C19.1885495,6.21795604 21.3846154,8.13136264 21.3846154,12.2441978 L21.3846154,19.9232747 Z" id="Shape" fillRule="nonzero"></path>
                </g>
            </g>
        </g>
    </g>
</svg>