<svg xmlns="http://www.w3.org/2000/svg" xmlns:xlink="http://www.w3.org/1999/xlink" width="246" height="75" viewBox="0 0 246 75">
  <defs>
    <clipPath id="clip-Policybazar_3">
      <rect width="246" height="75"/>
    </clipPath>
  </defs>
  <g id="Policybazar_3" data-name="Policybazar – 3" clip-path="url(#clip-Policybazar_3)">
    <g id="policybazaar-ae-logo" transform="translate(1 4.61)">
      <g id="Layer_2" data-name="Layer 2" transform="translate(0 -4)">
        <g id="Layer_1-2" data-name="Layer 1-2">
          <path id="Path_86577" data-name="Path 86577" d="M135.26,17.52a6.985,6.985,0,0,0-4.38-4,7.985,7.985,0,0,0-8.56,2.31,19.569,19.569,0,0,0-1.49,1.82V3.72h-7.6V4.9h.22l2.14.32a1.129,1.129,0,0,1,.85,1,20.1,20.1,0,0,1,.22,2.57V35.6h3.1s.21-.21.21-.32c.11-.75.32-1.39.43-2.14,0,0,0-.21.1-.21a.376.376,0,0,1,.33.11,5.176,5.176,0,0,0,.74.74,8.738,8.738,0,0,0,10,1.07,8.593,8.593,0,0,0,3.95-4.7,16.712,16.712,0,0,0,1.07-7.6A12.1,12.1,0,0,0,135.26,17.52Zm-2.78,8.24a14.924,14.924,0,0,1-.75,4.39c-1,2.78-3,3.85-5.88,3.42a9.91,9.91,0,0,1-4.7-2.14.526.526,0,0,1-.22-.43V19.45a1.273,1.273,0,0,1,.32-.86,8.165,8.165,0,0,1,4.6-2.89,5.015,5.015,0,0,1,4.38,1,6.057,6.057,0,0,1,1.72,3.1,18.43,18.43,0,0,1,.53,5.96Z" fill="#253858"/>
          <path id="Path_86578" data-name="Path 86578" d="M157.5,34c-.43,0-.75.11-1.39.11-.85,0-1.39-.54-1.6-1.5a14.724,14.724,0,0,1-.32-3.11V20.09a13.341,13.341,0,0,0-.11-2,5.328,5.328,0,0,0-2.57-4,7.787,7.787,0,0,0-3.42-1,18.759,18.759,0,0,0-8.66,1.74.794.794,0,0,0-.21.43V19h2.67c0-.32.11-.53.11-.86a3.222,3.222,0,0,1,2.35-3.1,15.136,15.136,0,0,1,2-.32,3.293,3.293,0,0,1,3.53,2.46c.64,1.71.32,3.53.43,5.35h-.54c-1.39,0-2.78.11-4.17.21a10.83,10.83,0,0,0-4.7,1.4,6.408,6.408,0,0,0-2.46,8.55,6.552,6.552,0,0,0,6.98,3.14,10.341,10.341,0,0,0,4.6-2.25c.42-.32.85-.75,1.28-1.07.11.32.21.54.32.86a3.4,3.4,0,0,0,3.1,2.56,10.459,10.459,0,0,0,1.93-.21,1.111,1.111,0,0,0,1-1.28c-.15-.12-.15-.21-.15-.44Zm-7.16-1.93A9.193,9.193,0,0,1,147,33.46a4.213,4.213,0,0,1-4.86-3.44h0a4.6,4.6,0,0,1-.06-.52,4.76,4.76,0,0,1,3-4.92,12.5,12.5,0,0,1,5.34-.85c0,.32,0,.53.22.64v7.17a.6.6,0,0,1-.3.53Z" fill="#253858"/>
          <path id="Path_86579" data-name="Path 86579" d="M223.37,34c-1.39.32-2.14-.11-2.46-1.5a11.3,11.3,0,0,1-.32-2.78V19.77a8.661,8.661,0,0,0-.11-1.61A5.171,5.171,0,0,0,217,13.67a8.187,8.187,0,0,0-2.35-.53,18.8,18.8,0,0,0-8.71,1.69.886.886,0,0,0-.22.43v3.31c0,.11.11.22.11.32h2.67c0-.1,0-.21-.32-.43.22-2,.65-3,2.68-3.74a4.466,4.466,0,0,1,3.53.11,3.53,3.53,0,0,1,2,3.21c.1,1.39.1,2.78.1,4.17l-.1.11h-.32c-1.5,0-2.89.1-4.28.21a13.773,13.773,0,0,0-4.6,1.39,6.283,6.283,0,0,0-2.65,8.48h0q.135.255.3.51a6.4,6.4,0,0,0,6.74,2.67,9.265,9.265,0,0,0,4.59-2.24c.43-.32.86-.75,1.29-1.07a8.159,8.159,0,0,1,.42,1.17,3,3,0,0,0,2.36,2.25,7.024,7.024,0,0,0,3.31-.32.226.226,0,0,0,.21-.21,5.073,5.073,0,0,0-.1-1.29c-.08.02-.19.13-.29.13Zm-6.74-9.84v7.48a.607.607,0,0,1-.32.54,8.6,8.6,0,0,1-3.21,1.39,4.274,4.274,0,0,1-4.87-3.59q-.015-.345,0-.69a4.992,4.992,0,0,1,3.43-4.81,13.08,13.08,0,0,1,5-.75l-.03.43Z" fill="#253858"/>
          <path id="Path_86580" data-name="Path 86580" d="M201,34.11a1.916,1.916,0,0,1-2.31-1.4h0v-.2a10.167,10.167,0,0,1-.22-1.82c-.1-3.53-.1-7.06-.1-10.48a11.055,11.055,0,0,0-.11-1.82,5.267,5.267,0,0,0-4.17-5,8.608,8.608,0,0,0-3.74-.32,17.963,17.963,0,0,0-6.63,1.71.809.809,0,0,0-.22.43v3.42a.386.386,0,0,1,.11.22h2.57a4.671,4.671,0,0,1,.1-1.18A3.441,3.441,0,0,1,188,15.18a7.124,7.124,0,0,1,2.57-.54A3.354,3.354,0,0,1,194,17.1c.64,1.72.32,3.53.43,5.35-.21,0-.32,0-.21.11-1.18.11-2.36.11-3.64.21a12.122,12.122,0,0,0-4.7,1.07,6.28,6.28,0,0,0,3,12.09,8.386,8.386,0,0,0,4.7-1.92c.63-.47,1.24-.97,1.82-1.5a3.994,3.994,0,0,0,2.25,3.21,5.634,5.634,0,0,0,4-.21,5.8,5.8,0,0,0-.1-1.5,2.648,2.648,0,0,0-.55.11Zm-6.63-10v7.48c0,.22-.11.33-.32.54a9.382,9.382,0,0,1-3.21,1.39A4.278,4.278,0,0,1,186,29.98a5.676,5.676,0,0,1-.05-.58,5,5,0,0,1,3.21-4.82,12.671,12.671,0,0,1,5.24-.85l-.03.38Z" fill="#253858"/>
          <path id="Path_86581" data-name="Path 86581" d="M166,33.46c4.38-6,8.66-12.09,13-18.08a2.436,2.436,0,0,0,.43-1.92H161.56v4.73h2.14v-1.5a5.825,5.825,0,0,1,.11-1.18.931.931,0,0,1,.75-.64c.53,0,1.07-.11,1.6-.11h8.66a.849.849,0,0,1-.21.32c-4.39,6.21-8.77,12.31-13.26,18.51a2.247,2.247,0,0,0-.43,1.82h19v-1.5H165.73a.558.558,0,0,0,.27-.45Z" fill="#253858"/>
          <path id="Path_86582" data-name="Path 86582" d="M232.78,17.63v-4h-7.6V14.7c1,.21,1.82.32,2.89.64a1.085,1.085,0,0,1,.86,1,20.241,20.241,0,0,1,.21,2.46V30.47a15.213,15.213,0,0,1-.11,2.24A1.378,1.378,0,0,1,227.75,34a13.433,13.433,0,0,0-2,.21c-.11,0-.32.11-.32.22V35.5H237.3V34.23a2.125,2.125,0,0,0-.75-.1,13.988,13.988,0,0,1-2.14-.22,1.373,1.373,0,0,1-1.28-1.39,16.833,16.833,0,0,1-.22-2.35c0-3.21.11-6.42,0-9.63a2.653,2.653,0,0,1,.54-1.82,5.827,5.827,0,0,1,4.17-2.25c1,0,1.07.11,1.28,1.07.11.54.11,1.29.21,1.82h2.14v-6c-3.88-.65-6.44,1.17-8.47,4.27Z" fill="#253858"/>
          <path id="Path_86583" data-name="Path 86583" d="M12.62,13.67A8.77,8.77,0,0,0,8,17.42c0,.1-.11.21-.21.32a.1.1,0,0,0-.11-.11V13.99c0-.32-.11-.43-.43-.43H0s0,.11.21.22a1.735,1.735,0,0,0,.11.75c0,.21,0,.32.32.32.54.1,1,.1,1.5.21a1.935,1.935,0,0,1,1.71,1.71c0,.54.11,1.29.11,1.82V43.31H7.81V33.04a.107.107,0,0,1,.09-.11h.01a2,2,0,0,0,.43.53,9.148,9.148,0,0,0,5,2.36,7.706,7.706,0,0,0,7.69-4.07,15.5,15.5,0,0,0,1.82-6.52,15.44,15.44,0,0,0-.85-7c-1.79-4.56-5.64-5.84-9.38-4.56Zm5.66,16.05a6.361,6.361,0,0,1-1.6,2.89,4.368,4.368,0,0,1-3.74,1.07A10.743,10.743,0,0,1,8,31.54.578.578,0,0,1,7.68,31V19.34a.442.442,0,0,1,.21-.43,7.806,7.806,0,0,1,4.49-3.31A4,4,0,0,1,17,17.31a10.087,10.087,0,0,1,1.61,4.09,18.281,18.281,0,0,1-.33,8.32Z" fill="#0065ff"/>
          <path id="Path_86584" data-name="Path 86584" d="M40.2,14.53a10.581,10.581,0,0,0-6.52-1.29,9.29,9.29,0,0,0-7.16,4.39,12.978,12.978,0,0,0-1.61,10c1.18,5,5,8.34,10.16,8.24a2.409,2.409,0,0,1,1,.1c.11,0,.32-.1.43-.1a9.154,9.154,0,0,0,7.17-4.71A13.286,13.286,0,0,0,44.95,21.1a10.109,10.109,0,0,0-4.75-6.57Zm-.32,16.79A5.917,5.917,0,0,1,37.64,34a4.689,4.689,0,0,1-6.31-1,9.955,9.955,0,0,1-2.25-4.93,16.428,16.428,0,0,1,.75-9.63,7.6,7.6,0,0,1,2.25-3.2,4.772,4.772,0,0,1,6.71.65h0l.23.3a10.5,10.5,0,0,1,2.14,5.24c.21,1.07.21,2,.32,2.57a15.683,15.683,0,0,1-1.61,7.31Z" fill="#0065ff"/>
          <path id="Path_86585" data-name="Path 86585" d="M52.82,4.15c0-.32,0-.43-.43-.43H45.23V4.83a8.823,8.823,0,0,0,2.46.11,2.009,2.009,0,0,1,1.39,1.52,9.377,9.377,0,0,1,.21,1.49c0,4,0,7.81-.1,11.77,0,2.14-.11,4.18-.11,6.32C49,28.88,49,31.88,49,34.77v.43h3.5a.473.473,0,0,0,.53-.54c0-5.24-.1-10.59-.1-15.94-.11-4.81-.11-9.65-.11-14.57Z" fill="#0065ff"/>
          <path id="Path_86586" data-name="Path 86586" d="M108.32,13.14c-.33,0-.43,0-.54.32-.43,1.39-.85,2.78-1.39,4.17-1.71,4.2-3.53,8.2-5.39,12.3-.1,0-.1.11-.21.22-.11-.22-.11-.32-.21-.43-1.71-4.17-3.53-8.45-5.24-12.63A6.926,6.926,0,0,1,95,14.53V13.14H88.9c-1,0-.85-.11-.85.85v.11s.11.21.21.21a3.09,3.09,0,0,1,2.46,1.93c.32.75.54,1.39.86,2.14,2.35,5.45,4.6,10.91,6.84,16.26a.894.894,0,0,1,0,.75,6.221,6.221,0,0,0-.64,1.5c-.43,1.07-.86,2.14-1.28,3.1a3.141,3.141,0,0,1-1.61,1.5,6.729,6.729,0,0,1-3.53.64c-.74,0-1.49-.11-2.24-.11-.54,0-.64.11-.43.75.32,0,.54.11.75.11,1.18,0,2.35.11,3.42.11a9.826,9.826,0,0,0,1.71-.11,3.62,3.62,0,0,0,2.89-2.46c1.6-3.32,3.1-6.85,4.7-10.27,2-4.71,4.28-9.53,6.42-14.23.43-.75.85-1.5,1.28-2.36-.58,0-1.12.11-1.54-.42Z" fill="#0065ff"/>
          <path id="Path_86587" data-name="Path 86587" d="M85.43,14.1c-2.46-.54-4.81-1.18-7.37-.86a9.421,9.421,0,0,0-7.17,4.39,12.125,12.125,0,0,0-1.07,11.45,9.858,9.858,0,0,0,6.52,6.31,14.314,14.314,0,0,0,9.2-.64c.11,0,.21-.22.21-.32V33.04a.8.8,0,0,0-.53.21,10.935,10.935,0,0,1-5.88.64,6.894,6.894,0,0,1-5.56-5A17.371,17.371,0,0,1,73,22.25a12.654,12.654,0,0,1,1.21-4.42A5.506,5.506,0,0,1,79,14.44c2-.11,3.53.54,4.06,2.68a9.085,9.085,0,0,1,.34,1.71c0,.32.11.43.43.43h1.6a.291.291,0,0,0,.32-.26h0a.085.085,0,0,0,0-.07V14.44c0-.12-.1-.23-.32-.34Z" fill="#0065ff"/>
          <path id="Path_86588" data-name="Path 86588" d="M58.17,13.67v1.07h1.07a2.214,2.214,0,0,1,.85.11,1.935,1.935,0,0,1,1.71,1.71c0,.53.11,1.07.11,1.5,0,2.35-.11,4.7-.11,7,0,3.1-.1,6.21-.1,9.31v1h4.17c-.11-7.16-.11-14.44-.22-21.61l-7.48-.09Z" fill="#0065ff"/>
          <rect id="Rectangle_43614" data-name="Rectangle 43614" width="3.85" height="3.74" transform="translate(61.8 5.75)" fill="#0065ff"/>
        </g>
      </g>
      <path id="Path_86591" data-name="Path 86591" d="M228.964,232.1H3.82l5.436-20.3H234.4Z" transform="translate(3.18 -168.41)" fill="#253858"/>
      <text id="Middle_East_Insurance_Broker" data-name="Middle East Insurance Broker" transform="translate(17 57.39)" fill="#fff" font-size="12" font-family="Helvetica-Bold, Helvetica" letter-spacing="0.01em" font-weight="700"><tspan x="0" y="0">MIDDLE</tspan><tspan y="0" font-family="MunaBold, Muna" font-weight="400"> </tspan><tspan y="0">EAST</tspan><tspan y="0" font-family="MunaBold, Muna" font-weight="400"> </tspan><tspan y="0">INSU</tspan><tspan y="0" letter-spacing="-0.01em">R</tspan><tspan y="0">ANCE</tspan><tspan y="0" font-family="MunaBold, Muna" font-weight="400"> </tspan><tspan y="0">B</tspan><tspan y="0" letter-spacing="-0.01em">R</tspan><tspan y="0">O</tspan><tspan y="0" letter-spacing="-0.01em">K</tspan><tspan y="0">E</tspan><tspan y="0" letter-spacing="-0.01em">R</tspan></text>
    </g>
  </g>
</svg>
