<svg width="22px" height="16px" viewBox="0 0 22 16" version="1.1" xmlns="http://www.w3.org/2000/svg" xmlns:xlink="http://www.w3.org/1999/xlink">
  
    <g id="Page-1" stroke="none" strokeWidth="1" fill="none" fillRule="evenodd">
        <g id="Home_Screen_(India)" transform="translate(-1259.000000, -5114.000000)" fill="#FFFFFF" fillRule="nonzero">
            <g id="Group-48" transform="translate(1098.000000, 5107.000000)">
                <g id="youtube" transform="translate(161.000000, 7.000000)">
                    <path d="M8.32010989,11.2241099 C10.5267253,10.0798242 12.7138242,8.9450989 14.9226154,7.80002198 C12.7074286,6.6441978 10.5205934,5.50413187 8.32010989,4.35582418 L8.32010989,11.2241099 Z M21.0215165,12.9095165 C20.7669451,14.0139121 19.8635165,14.8293846 18.776,14.9508352 C16.2016703,15.2378462 13.5952308,15.2397582 10.9989451,15.2378462 C8.40371429,15.2397582 5.79727473,15.2378462 3.22215385,14.9508352 C2.13437363,14.8294505 1.23101099,14.0139121 0.977758242,12.9095165 C0.615384615,11.3371868 0.615384615,9.61940659 0.615384615,7.99993407 C0.615384615,6.38046154 0.61967033,4.66347253 0.981714286,3.09114286 C1.23496703,1.98569231 2.13865934,1.17127473 3.22505495,1.04989011 C5.80043956,0.762087912 8.408,0.760967033 11.0032308,0.762087912 C13.5981978,0.761032967 16.2049011,0.762087912 18.780022,1.04989011 C19.8678022,1.17127473 20.7711648,1.98569231 21.0255385,3.09114286 C21.3878462,4.66347253 21.3846154,6.38046154 21.3846154,7.99993407 C21.3846154,9.61940659 21.3835604,11.3371868 21.0215165,12.9095165 Z" id="Shape"></path>
                </g>
            </g>
        </g>
    </g>
</svg>